<?xml version="1.0" standalone="no"?>
<!DOCTYPE svg PUBLIC "-//W3C//DTD SVG 20010904//EN"
 "http://www.w3.org/TR/2001/REC-SVG-20010904/DTD/svg10.dtd">
<svg version="1.0" xmlns="http://www.w3.org/2000/svg"
 width="348.000000pt" height="125.000000pt" viewBox="0 0 348.000000 125.000000"
 preserveAspectRatio="xMidYMid meet">

<g transform="translate(0.000000,125.000000) scale(0.100000,-0.100000)"
fill="#000000" stroke="none">
<path d="M1480 635 l0 -335 120 0 120 0 2 168 3 167 54 -167 55 -168 75 0 76
0 50 163 50 162 3 -162 2 -163 125 0 125 0 0 335 0 336 -152 -3 -153 -3 -60
-167 c-33 -92 -63 -168 -66 -168 -3 0 -33 75 -66 168 l-61 167 -151 3 -151 3
0 -336z"/>
<path d="M377 813 c-91 -31 -168 -120 -183 -212 l-7 -41 112 0 c110 0 111 0
117 25 12 49 101 72 143 38 12 -10 24 -35 28 -55 5 -32 1 -41 -25 -68 -43 -42
-84 -41 -128 5 l-33 35 -107 0 -107 0 6 -34 c14 -86 68 -154 157 -195 47 -22
69 -26 150 -26 82 0 103 4 151 26 114 54 166 143 157 270 -12 156 -129 250
-312 248 -39 0 -93 -7 -119 -16z"/>
<path d="M1017 813 c-91 -31 -168 -120 -183 -212 l-7 -41 112 0 c110 0 111 0
117 25 12 49 101 72 143 38 12 -10 24 -35 28 -55 5 -32 1 -41 -25 -68 -43 -42
-84 -41 -128 5 l-33 35 -107 0 -107 0 6 -34 c14 -86 68 -154 157 -195 47 -22
69 -26 150 -26 82 0 103 4 151 26 114 54 166 143 157 270 -12 156 -129 250
-312 248 -39 0 -93 -7 -119 -16z"/>
<path d="M2815 816 c-38 -8 -90 -19 -114 -26 l-44 -11 7 -61 c3 -34 6 -71 6
-83 l0 -22 68 19 c37 10 103 20 147 21 75 2 80 1 83 -19 3 -20 -2 -22 -92 -26
-110 -6 -189 -37 -230 -91 -58 -76 -36 -176 48 -216 41 -20 59 -22 150 -19 58
1 108 6 111 10 4 4 3 33 -1 65 -9 58 -9 58 -46 61 -20 2 -42 10 -49 19 -19 22
14 43 68 43 l43 0 0 -95 0 -95 110 0 110 0 0 214 c0 205 -1 214 -23 247 -34
52 -86 73 -192 76 -49 1 -121 -4 -160 -11z"/>
<path d="M2370 746 l0 -63 77 -7 c42 -3 91 -6 110 -6 l33 0 0 70 0 70 -110 0
-110 0 0 -64z"/>
<path d="M2370 470 l0 -180 110 0 110 0 0 180 0 180 -110 0 -110 0 0 -180z"/>
</g>
</svg>
